<?xml version="1.0" encoding="utf-8"?>
<!-- Svg Vector Icons : http://www.onlinewebfonts.com/icon -->
<!DOCTYPE svg PUBLIC "-//W3C//DTD SVG 1.1//EN" "http://www.w3.org/Graphics/SVG/1.1/DTD/svg11.dtd">
<svg version="1.1" xmlns="http://www.w3.org/2000/svg" xmlns:xlink="http://www.w3.org/1999/xlink" x="0px" y="0px" viewBox="0 0 1000 1000" enable-background="new 0 0 1000 1000" xml:space="preserve">
<metadata> Svg Vector Icons : http://www.onlinewebfonts.com/icon </metadata>
<g fill="#F4976C"><path d="M878,223.4l17.6,162.7h3.6l-18.1-165.3L878,223.4z"/><path d="M882.5,218.3L976,495.9h-5.1l-93-273.7L882.5,218.3z"/><path d="M876.3,220.3v113h3.3v-109L876.3,220.3z"/><path d="M416,967.9h209.7v4.4H416V967.9z"/><path d="M360.3,953.5l35.9,12.4l2.4-4.4l-34-11.1L360.3,953.5z"/><path d="M156.3,163.5l-6.6,83.3h-3.3l8.3-83.3H156.3z"/><path d="M150.3,247.7L343.4,81.1l3.4,2.8L154.4,250.2L150.3,247.7z"/><path d="M342.8,82.6l-143.7,57.2l-1.4-1.4l145.1-61V82.6z"/><path d="M360.5,72.4l47.9-28.3v-2.4l-51.6,28.4L360.5,72.4z"/><path d="M360.3,72.3l259.5-19.9v2.7L360.3,75.9V72.3z"/><path d="M347.8,83.2l-9.1,99.8l4.2-0.5l7.1-99.3H347.8z"/><path d="M357.5,82.4l184.2,75.2l1.2-4.1l-184.3-75l-1.1,2.8V82.4z"/><path d="M624.1,54.8L555,152.3l3.7,2.8l69.1-97.7L624.1,54.8z"/><path d="M32.9,368l107.8-109.6l2.6,2.2L35,369.6L32.9,368z"/><path d="M141,262.7L76.9,504.9l3,2.5l65-244.7H141z"/><path d="M31.3,386.4l31.3,27.8l3.6-5.8l-31.3-24.9L31.3,386.4z"/><path d="M23.4,386.2l43.9,121.2h3.4L27.4,386.2H23.4z"/><path d="M334.7,208.2h3.9v3.5h-3.9V208.2z"/><path d="M152.2,253.9l175.4-33.6v3.4l-175.4,33.1V253.9z"/><path d="M148.2,261L237,405.3l1,1.6l3-3l-90.7-144.9L148.2,261z"/><path d="M247.5,403.9l84.9-177.5h2.3l-82.6,177.5H247.5z"/><path d="M331.7,226.4l-26.6,263.9h3.3l26.2-263.9H331.7z"/><path d="M344.3,216.1l198.7-54.3v5l-198.7,53.4V216.1z"/><path d="M637.8,62.1l119.9,124.6l2.3-2.3L637.8,58.3V62.1z"/><path d="M562,160.1l194.1,28.7v2.4L562,163.4V160.1z"/><path d="M775.3,194.7l89,12.9v4.4l-90.4-15.3L775.3,194.7z"/><path d="M769,200.8l95.2,142.5l2.2-2.5l-95-143.5L769,200.8z"/><path d="M762.3,199l-56.3,137.4h3.9L765.3,199H762.3z"/><path d="M336.7,224.5l127.9,126.3l2.3-3.4L340.3,224.5H336.7z"/><path d="M545.6,165.6l-73.1,182.1h3.3l72.6-182.1H545.6z"/><path d="M555,165.6l143.2,172.7l4-0.6L558.7,165.6H555z"/><path d="M473.8,351.5l223.9-5.7v2.8L477.2,354L473.8,351.5z"/><path d="M882.4,357.1l85.1,138.8h3.5l-84.8-138.8H882.4z"/><path d="M874.2,356.5l93.5,139.4l2.2-2l-90.1-137.4H874.2z"/><path d="M711.3,343.6l179.2,48.3l-3.8,2.9l-175.5-47.4V343.6z"/><path d="M704.7,349.4l71.8,219.9h2.1l-71.4-219.9H704.7z"/><path d="M601.7,507.4l97.1-156.1h3.4l-98.3,156.1H601.7z"/><path d="M623.3,415.9l-26.2,91.5h2.5l27-91.5H623.3z"/><path d="M472.5,356.6L592,507.4h2.6L475.3,356.6H472.5z"/><path d="M256,410l1.6-0.4L466.9,354v3.8L256,413.1V410z"/><path d="M467.7,357.8l-63.8,214h3.3l62.9-212.7L467.7,357.8z"/><path d="M316.6,502.4l301.8-97.7l2.4,3.3l-302,97.4L316.6,502.4z"/><path d="M81.4,424.3l209,78.7v-2.2L85.7,421.3L81.4,424.3z"/><path d="M82,510.7l159.5-96.2l2.2,3.1l-160,94.9L82,510.7z"/><path d="M69.8,521.2L28.7,634.4h3.5L72.5,523L69.8,521.2z"/><path d="M73.8,522.4L146.6,764h3.4L77.2,522.4H73.8z"/><path d="M30.5,654.6l111.6,113.4l1.7-4.1L32.2,651.1L30.5,654.6z"/><path d="M215.9,631.9l-39.8,109.7l3.2,5.7l38.6-112.1L215.9,631.9z"/><path d="M77.2,521.7l132.6,101.2l2.6-3.5l-131-101.2L77.2,521.7z"/><path d="M242,416.2l-22.2,200.4h3.1l23.2-200.4H242z"/><path d="M246.1,418.7l151.9,154l2.6-0.9L249.1,418.7H246.1z"/><path d="M297.9,515.5L182,741.7h3.4l114.1-222.8L297.9,515.5z"/><path d="M229.8,622.9l167.9-46.5v2.5l-167.9,47.8V622.9z"/><path d="M408.8,573.3l185.8-58.6v3.4l-185.8,58.7V573.3z"/><path d="M603,518.1l168.1,57l1.4-3.4L603,514.8V518.1z"/><path d="M892.1,398.4L784.9,569.3h2.3l105-167.3V398.4z"/><path d="M899.1,400.6l13.2,224.9h3.9l-14.4-224.9H899.1z"/><path d="M973.7,513.1l-55.6,112.2l3.1,3l56.5-115.2H973.7z"/><path d="M784.9,581.7l118.4,52.8v-5.4l-118.4-50.6V581.7z"/><path d="M911.1,642.2l-31.5,150.6h4.2l29.4-150.6H911.1z"/><path d="M778.7,583.2l-16.2,215.5h2.5l16.6-215.5H778.7z"/><path d="M909.4,642.2l-142,155.2l2.1,1.3l142-156.5H909.4z"/><path d="M850.3,666.5L873,792.8h3.6l-22.6-126.3H850.3z"/><path d="M597.1,518.7l-10,192.2h2.8l9.9-193.2L597.1,518.7z"/><path d="M592.4,713.1l182.5-131.1l1.5,2.1l-184,132.1V713.1z"/><path d="M591.5,720.2L753.3,806l3-2.2l-163.6-86.6L591.5,720.2z"/><path d="M406.2,580.3l175.2,136.9v-4.6L408.1,576.8L406.2,580.3z"/><path d="M403.2,579.1l-40.9,202.1h3.4l39.2-200.4L403.2,579.1z"/><path d="M219.7,632.7l133.4,148.5h3l-133-151L219.7,632.7z"/><path d="M370.2,786.1l213.3-68.9v3.2l-213.3,68.7V786.1z"/><path d="M586.3,720.3l-38.3,160.6h2.6l37.8-160.6H586.3z"/><path d="M187.7,753.9L503.2,764v3.9l-315.4-11.2V753.9z"/><path d="M157.6,773.5l194.1,15.6v2.6l-194.1-15V773.5z"/><path d="M150.9,777.8l17.7,86.9h2.1l-16.2-86.9H150.9z"/><path d="M153,778.5L349,944l2.2-2.6L155.3,775.3L153,778.5z"/><path d="M359.4,802.4L356.1,937h3.3l2.9-137.1L359.4,802.4z"/><path d="M370.2,797.4L536,887.8l3.3-3.1l-169.1-92.9V797.4z"/><path d="M553.6,884.1l200.2-75.5v3.8l-200.2,76.5V884.1z"/><path d="M772,804.5l92.4-2.1v2.1l-92.4,4.1V804.5z"/><path d="M755.6,809.6l-117,146.9h5.2l111.9-143.9V809.6z"/><path d="M755.4,812.4L699.8,898l4.6,2.3l54.1-87.9H755.4z"/><path d="M689.7,912.3l-48.6,43.6l2.3,2.8l46.3-43.6V912.3z"/><path d="M363.6,939.9L537,890.6l2.4,3.1L363.6,944V939.9z"/><path d="M366.9,944.9l256.9,17v3.3l-256.9-18.2V944.9z"/><path d="M548.1,891.5l76.6,69v-4.1l-72.4-64.9H548.1z"/><path d="M171.6,156.1c0,6.9-5.6,12.5-12.5,12.5s-12.5-5.6-12.5-12.5c0-6.9,5.6-12.5,12.5-12.5S171.6,149.2,171.6,156.1z"/><path d="M351.9,194c0,7.8-6.3,14.2-14.2,14.2c-7.8,0-14.2-6.3-14.2-14.2c0-7.8,6.3-14.2,14.2-14.2C345.5,179.9,351.9,186.2,351.9,194z"/><path d="M361.6,74.9c0,6.1-5,11.1-11.1,11.1c-6.1,0-11.1-5-11.1-11.1c0-6.2,5-11.1,11.1-11.1C356.6,63.8,361.6,68.8,361.6,74.9z"/><path d="M429.7,35.8c0,7.1-5.8,12.9-12.9,12.9c-7.1,0-12.9-5.8-12.9-12.9c0-7.2,5.8-12.9,12.9-12.9C423.9,22.8,429.7,28.6,429.7,35.8z"/><path d="M561.6,160c0,5.7-4.6,10.3-10.3,10.3c-5.7,0-10.3-4.6-10.3-10.3c0-5.7,4.6-10.3,10.3-10.3C557,149.7,561.6,154.3,561.6,160z"/><path d="M685,114.7c0,7.7-6.3,14-14,14c-7.8,0-14-6.3-14-14c0-7.8,6.3-14,14-14S685,106.9,685,114.7z"/><path d="M776.5,191.2c0,6.2-5,11.2-11.2,11.2c-6.2,0-11.2-5-11.2-11.2c0-6.2,5-11.2,11.2-11.2C771.5,180,776.5,185,776.5,191.2z"/><path d="M790.2,575.7c0,5.8-4.7,10.5-10.5,10.5s-10.5-4.7-10.5-10.5c0-5.8,4.7-10.5,10.5-10.5C785.4,565.2,790.2,569.9,790.2,575.7z"/><path d="M478.2,352.5c0,4.5-3.6,8.1-8.1,8.1c-4.5,0-8.1-3.6-8.1-8.1c0-4.5,3.6-8.1,8.1-8.1C474.6,344.5,478.2,348.1,478.2,352.5z"/><path d="M865.4,657.3c0,8.3-6.8,15.1-15.1,15.1c-8.3,0-15.1-6.8-15.1-15.1c0-8.3,6.8-15.1,15.1-15.1C858.7,642.2,865.4,648.9,865.4,657.3z"/><path d="M649.5,401.6c0,9.6-7.8,17.4-17.4,17.4c-9.6,0-17.4-7.8-17.4-17.4c0-9.6,7.8-17.4,17.4-17.4C641.8,384.3,649.5,392.1,649.5,401.6z"/><path d="M714.6,343.6c0,5.5-4.4,9.9-9.9,9.9c-5.5,0-9.9-4.4-9.9-9.9c0-5.5,4.4-9.9,9.9-9.9C710.2,333.7,714.6,338.2,714.6,343.6z"/><path d="M861.8,209c0,7.8,6.3,14,14,14c7.8,0,14-6.3,14-14s-6.3-14-14-14C868.1,195,861.8,201.3,861.8,209z"/><path d="M894.9,344.4c0,8.4-6.8,15.3-15.3,15.3c-8.4,0-15.3-6.8-15.3-15.3c0-8.4,6.8-15.3,15.3-15.3C888.1,329.2,894.9,336,894.9,344.4z"/><path d="M923.9,633.5c0,5.9-4.8,10.7-10.7,10.7c-5.9,0-10.7-4.8-10.7-10.7c0-5.9,4.8-10.7,10.7-10.7C919.1,622.8,923.9,627.6,923.9,633.5z"/><path d="M990,506.2c0,7.4-6,13.3-13.3,13.3c-7.4,0-13.3-6-13.3-13.3c0-7.4,6-13.3,13.3-13.3C984,492.9,990,498.8,990,506.2z"/><path d="M606.2,513.5c0,4.3-3.5,7.9-7.9,7.9c-4.3,0-7.9-3.5-7.9-7.9c0-4.3,3.5-7.9,7.9-7.9C602.6,505.6,606.2,509.1,606.2,513.5z"/><path d="M646.4,964.8c0,6.8-5.5,12.4-12.4,12.4c-6.8,0-12.4-5.5-12.4-12.4s5.5-12.4,12.4-12.4C640.9,952.4,646.4,958,646.4,964.8z"/><path d="M707.3,906c0,6.6-5.3,12-12,12c-6.6,0-12-5.4-12-12c0-6.6,5.4-11.9,12-11.9C701.9,894.1,707.3,899.4,707.3,906z"/><path d="M751.8,805.9c0,5.7,4.6,10.3,10.3,10.3c5.7,0,10.3-4.6,10.3-10.3l0,0c0-5.7-4.6-10.3-10.3-10.3C756.4,795.6,751.8,800.2,751.8,805.9z"/><path d="M889.9,803c0,7.1-5.7,12.8-12.8,12.8c-7.1,0-12.8-5.7-12.8-12.8c0-7.1,5.7-12.8,12.8-12.8C884.2,790.2,889.9,795.9,889.9,803z"/><path d="M555.4,888c0,5.6-4.5,10.1-10.1,10.1s-10.1-4.5-10.1-10.1c0-5.6,4.5-10.1,10.1-10.1S555.4,882.5,555.4,888z"/><path d="M345.2,219.3c0,5.3-4.3,9.6-9.6,9.6c-5.3,0-9.6-4.3-9.6-9.6c0-5.3,4.3-9.6,9.6-9.6C340.9,209.7,345.2,214,345.2,219.3z"/><path d="M84.1,514.3c0,5.7-4.6,10.3-10.3,10.3c-5.7,0-10.3-4.6-10.3-10.3c0-5.7,4.6-10.3,10.3-10.3C79.4,504.1,84.1,508.7,84.1,514.3z"/><path d="M38.1,643.6c0,7.7-6.3,14-14,14c-7.8,0-14-6.3-14-14c0-7.8,6.3-14,14-14S38.1,635.8,38.1,643.6z"/><path d="M183.8,874.4c0,6.8-5.5,12.4-12.4,12.4c-6.8,0-12.4-5.5-12.4-12.4c0-6.8,5.5-12.4,12.4-12.4C178.2,862.1,183.8,867.6,183.8,874.4z"/><path d="M161.5,770.9c0,5.8-4.7,10.6-10.6,10.6c-5.8,0-10.6-4.7-10.6-10.6c0-5.8,4.7-10.6,10.6-10.6C156.8,760.4,161.5,765.1,161.5,770.9z"/><path d="M189.9,752.2c0,8.5-6.9,15.4-15.4,15.4c-8.5,0-15.4-6.9-15.4-15.4c0-8.5,6.9-15.4,15.4-15.4C183,736.8,189.9,743.7,189.9,752.2z"/><path d="M10,375.8c0,7.8,6.3,14,14,14s14-6.3,14-14c0-7.8-6.3-14-14-14S10,368.1,10,375.8z"/><path d="M411,575c0,4-3.2,7.2-7.2,7.2c-4,0-7.2-3.2-7.2-7.2c0-4,3.2-7.2,7.2-7.2C407.7,567.8,411,571,411,575z"/><path d="M371.2,788.4c0,5.2-4.2,9.5-9.5,9.5c-5.2,0-9.5-4.2-9.5-9.5s4.2-9.5,9.5-9.5C367,778.9,371.2,783.2,371.2,788.4z"/><path d="M420.1,963.9c0,7-5.6,12.6-12.6,12.6c-6.9,0-12.6-5.6-12.6-12.6c0-6.9,5.6-12.6,12.6-12.6C414.4,951.3,420.1,957,420.1,963.9z"/><path d="M366.8,945.4c0,5.6-4.5,10.1-10.1,10.1c-5.6,0-10.1-4.5-10.1-10.1c0-5.6,4.5-10.1,10.1-10.1C362.2,935.3,366.8,939.8,366.8,945.4z"/><path d="M155.4,253.9c0,5.8-4.7,10.6-10.6,10.6c-5.8,0-10.6-4.7-10.6-10.6c0-5.8,4.7-10.6,10.6-10.6C150.7,243.3,155.4,248,155.4,253.9z"/><path d="M60.4,416.2c0,8.4,6.8,15.1,15.1,15.1c8.4,0,15.1-6.8,15.1-15.1c0-8.4-6.8-15.1-15.1-15.1C67.2,401.1,60.4,407.9,60.4,416.2L60.4,416.2z"/><path d="M255.8,410.8c0,5.4-4.4,9.7-9.7,9.7c-5.4,0-9.7-4.4-9.7-9.7c0-5.4,4.4-9.7,9.7-9.7C251.4,401.1,255.8,405.5,255.8,410.8z"/><path d="M319.9,506.1c0,9.1-7.3,16.4-16.4,16.4c-9.1,0-16.4-7.3-16.4-16.4c0-9,7.3-16.4,16.4-16.4C312.5,489.7,319.9,497.1,319.9,506.1z"/><path d="M229.8,624.5c0,5.7-4.7,10.4-10.4,10.4s-10.4-4.7-10.4-10.4c0-5.7,4.7-10.4,10.4-10.4S229.8,618.8,229.8,624.5z"/><path d="M533.5,766.4c0,9.2-7.5,16.7-16.7,16.7c-9.2,0-16.7-7.5-16.7-16.7c0-9.2,7.5-16.7,16.7-16.7C526.1,749.8,533.5,757.2,533.5,766.4z"/><path d="M594,716.2c0,3.9-3.2,7-7,7c-3.9,0-7.1-3.2-7.1-7c0-3.9,3.2-7.1,7.1-7.1C590.9,709.1,594,712.3,594,716.2z"/><path d="M643.8,49.9c0,7-5.7,12.7-12.7,12.7c-7,0-12.7-5.7-12.7-12.7c0-7,5.7-12.6,12.7-12.6C638.1,37.3,643.8,42.9,643.8,49.9z"/><path d="M167.1,150.2l239-111.9l2.9,4L169.3,154.1L167.1,150.2z"/><path d="M427.3,35.8L619.8,49v3.4L427.3,39.8V35.8z"/><path d="M427.3,40.6l231.7,74v-3.9L427.3,38.2V40.6z"/><path d="M637.1,61.4l227.2,146.4l2.1-2.9L639.2,56.8L637.1,61.4z"/><path d="M977.7,516.4l-93.9,276.4h-4.2l93.9-276.4H977.7z"/><path d="M643.9,963.6l228.2-150.7l-3.4-2.1L643.9,960.1V963.6z"/><path d="M178.3,883.6l170,65.1v-5.1L181,879.3L178.3,883.6z"/><path d="M26,654.7l136.4,213.8l3.8-2.1L29.8,654.7H26z"/><path d="M22,387.9h2.8v246.5H22V387.9z"/><path d="M28.7,366.1l123.6-202.6h4L32.1,369.6L28.7,366.1z"/><path d="M153.2,165.6L76.9,404.7l5.5,2.1l74.9-241.2H153.2z"/><path d="M408.9,44.7L341,182l3.5,2.6l69.3-139.9H408.9z"/><path d="M349.9,189.8l311.9-73.3v4.2l-311.9,73.9V189.8z"/><path d="M346.8,197.9L619,390.8l-3,4.2L346.8,203V197.9z"/><path d="M72.5,428L24.8,634.4h5.3L76.5,428H72.5z"/><path d="M632.9,61.5l29.4,43.4h4.9l-30.1-47.9L632.9,61.5z"/><path d="M681.6,122.4l182.6,85.4v-4.4l-182.6-87V122.4z"/><path d="M676.6,124.2l189.7,212.1l2.8-3.1L681.7,121.9L676.6,124.2z"/><path d="M667.9,126.7l-35.9,259h5.1l35.1-259H667.9z"/><path d="M639.2,415.4l133.2,156.4l4.2-2.5L643.4,413.7L639.2,415.4z"/><path d="M32.1,651.2l130.3,97.2l3.8-2.6L34.6,648.6L32.1,651.2z"/><path d="M874.1,356.5l-23.8,287.9h2.8l23.3-287.9H874.1z"/><path d="M859.1,645.7l111.8-131.5l3.4,2.3L862,648L859.1,645.7z"/><path d="M782.8,583.4l57.5,66.6l2.3-4l-56.1-65.4L782.8,583.4z"/><path d="M843.6,666.9l-80,129.7v4.9L846.3,670L843.6,666.9z"/><path d="M532.7,761.5l306.8-101v4.2L532.7,765.4V761.5z"/><path d="M181.5,764.1l214.9,194.7h3L185.7,761.6L181.5,764.1z"/><path d="M704.1,900l162.9-94.2l2,3.9l-162.9,93.1L704.1,900z"/><path d="M416,963.5l270.3-56.4v4.1l-267.8,56.8L416,963.5z"/><path d="M908.4,392.6c0,5.9-4.8,10.7-10.7,10.7c-5.9,0-10.7-4.8-10.7-10.7c0-5.9,4.8-10.7,10.7-10.7C903.6,381.9,908.4,386.7,908.4,392.6z"/><path d="M84.7,406.8l240.6-206l2.4,2.5L88.6,410L84.7,406.8z"/><path d="M75.5,430l93.2,311.7l3.8-2.1L79.3,428L75.5,430z"/><path d="M593.8,517.6l-72.6,234.2h4l71.2-232L593.8,517.6z"/><path d="M167.6,161l155.7,33.6v-4.3l-152.8-34L167.6,161z"/><path d="M646.1,396.8l221.1-49.1l3,3.7l-224.1,49.2V396.8z"/><path d="M525.2,774L687.7,901v-3.9L529.6,772.2L525.2,774z"/><path d="M413.9,954.4L509,778.5h3.8l-96,178.1L413.9,954.4z"/><path d="M172.5,766.2h3.3v98.5h-3.3V766.2z"/><path d="M310.3,518l194.9,238.7l3.4-2.1L314.5,515.2L310.3,518z"/></g>
</svg>